# xmcd CD database file
#
# Track frame offsets:
#	150
#	12730
#	23482
#	40367
#	60942
#	78725
#	93645
#	115730
#	131840
#	144417
#
# Disc length: 2097 seconds
#
# Revision: 0
# Processed by: cddbd v1.4PL0 Copyright (c) Steve Scherf et al.
# Submitted via: CDex 1.51
#
DISCID=83082f0a
DTITLE=Various Artist - Super Blues Legends
DYEAR=1900
DGENRE=Blues
TTITLE0=Everybody Knows About My Good Thing /Little Johnny Taylor
TTITLE1=Recession Blues /B B King
TTITLE2=No Do Right /T Bone Walker
TTITLE3=Baby Baby /John Lee Hooker
TTITLE4=Harp and Soul - Frank Frost
TTITLE5=You Threw Away Your Lifetime /Clay Hammond
TTITLE6=Mr Charlie /Lighnin Hopkins
TTITLE7=Crazy About That Mini Skirt /Jimmy Reed
TTITLE8=Honey Hush /Joe Turner
TTITLE9=Something Strange Is Going On In My House /Ted Taylor
EXTD=
EXTT0=
EXTT1=
EXTT2=
EXTT3=
EXTT4=
EXTT5=
EXTT6=
EXTT7=
EXTT8=
EXTT9=
PLAYORDER=
